<svg width="55" height="55" viewBox="0 0 55 55" fill="none" xmlns="http://www.w3.org/2000/svg">
<path d="M41.1263 0.266094C37.4453 0.997993 34.367 3.37666 32.7525 6.73479C30.9551 10.4804 31.2672 14.8287 33.5813 18.3375C34.1841 19.2524 35.6694 20.7592 36.595 21.3943C38.9091 22.998 41.8152 23.7622 44.4629 23.4608C47.3475 23.1379 49.9199 21.8679 51.8465 19.8121C53.1919 18.3806 54.1821 16.5939 54.6987 14.6565C54.9463 13.7201 54.9786 13.408 54.9786 11.772C54.9786 10.1467 54.9463 9.82382 54.6987 8.89819C54.3758 7.67118 53.7516 6.30426 53.0627 5.24946C52.5138 4.43146 52.234 4.1839 51.8465 4.1839C51.5236 4.1839 51.0715 4.63596 51.0715 4.95885C51.0715 5.09878 51.3191 5.57236 51.6205 6.01365C53.1704 8.3385 53.73 10.8571 53.278 13.4726C52.5891 17.4334 49.7046 20.5655 45.8191 21.588C44.5167 21.9324 42.4502 21.9755 41.1801 21.6849C37.4776 20.8561 34.5285 18.0254 33.506 14.3228C33.3122 13.634 33.2692 13.2035 33.2692 11.772C33.2799 10.2113 33.3015 9.96375 33.5706 9.08116C34.5392 5.90602 36.7134 3.50582 39.6625 2.36492C41.0295 1.83752 42.0735 1.67608 43.7418 1.74066C45.507 1.80523 46.3572 2.0205 47.9071 2.79545C49.0803 3.37666 49.414 3.40895 49.7261 2.96766C50.1244 2.39721 49.7907 1.91286 48.6068 1.32089C47.5843 0.825781 46.5295 0.459833 45.4424 0.255331C44.3876 0.061594 42.1488 0.061594 41.1263 0.266094Z" fill="black"/>
<path d="M41.8259 3.86098C38.7476 4.50677 36.3151 6.78857 35.5079 9.78074C35.2173 10.8463 35.2388 12.816 35.5509 13.9246C36.5627 17.4657 39.641 19.7905 43.322 19.7905C47.4335 19.7905 50.7271 16.8845 51.2867 12.7622C51.502 11.2123 51.1899 9.55472 50.4042 8.01558C50.0597 7.34826 49.7261 6.91773 48.9834 6.17507C47.864 5.06646 47.1644 4.6144 45.8298 4.15159C45.0226 3.87174 44.6997 3.82869 43.5911 3.7964C42.8807 3.77487 42.0842 3.80716 41.8259 3.86098ZM42.8592 6.44415C43.2143 6.71323 43.4404 6.71323 43.7956 6.43339C44.0001 6.27194 44.0754 6.11049 44.0754 5.84141C44.0754 5.50775 44.1077 5.47546 44.3983 5.47546C44.8288 5.47546 45.9913 5.91675 46.7231 6.34728C47.412 6.76705 48.4453 7.82184 48.865 8.53221C49.1772 9.07037 49.5108 9.95296 49.6185 10.5557C49.6938 10.9539 49.6938 10.9647 49.3601 10.9647C48.9296 10.9647 48.4883 11.3845 48.4883 11.7827C48.4883 12.2132 48.8758 12.5792 49.3278 12.5792H49.7046L49.6292 13.0097C49.457 14.0645 48.7036 15.4852 47.8425 16.3463C46.9815 17.2074 45.7222 17.8639 44.4306 18.1222C44.0862 18.1868 44.0754 18.1868 44.0754 17.8101C44.0754 17.315 43.7633 16.9921 43.2897 16.9921C42.8484 16.9921 42.5793 17.2612 42.4932 17.7886C42.4286 18.1653 42.4179 18.1868 42.095 18.1115C39.7916 17.6271 37.9834 16.0234 37.2515 13.8492C36.864 12.7191 36.8748 12.5792 37.3376 12.5792C37.7682 12.5792 38.1556 12.1809 38.1556 11.7504C38.1556 11.3845 37.7036 10.9647 37.2946 10.9647C36.8856 10.9647 36.8748 10.771 37.2192 9.76998C37.9188 7.70344 39.7916 6.00286 41.8582 5.52928L42.4071 5.40012L42.4932 5.80912C42.547 6.05667 42.6977 6.31499 42.8592 6.44415Z" fill="black"/>
<path d="M42.773 7.61775C42.5254 7.82225 42.5147 7.88683 42.4824 9.63047C42.4286 12.5365 42.4501 12.5796 44.1184 12.5796C45.4207 12.5796 45.7221 12.4397 45.7221 11.8262C45.7221 11.2988 45.2916 10.9651 44.6027 10.9651H44.0753V9.40444C44.0753 7.9837 44.0538 7.82225 43.8601 7.62851C43.591 7.35943 43.0959 7.34867 42.773 7.61775Z" fill="black"/>
<path d="M19.1908 19.3492C19.0401 19.4676 18.7818 19.8659 18.6204 20.2426C18.3728 20.8023 18.3082 21.1144 18.2652 22.0077C18.2114 23.3208 18.3621 23.9451 18.9971 24.9569C19.8797 26.3668 19.9873 26.6897 19.9442 27.7338C19.912 28.4872 19.8474 28.7886 19.5998 29.2944C19.3415 29.8434 19.32 29.9617 19.4276 30.2308C19.503 30.403 19.6967 30.5968 19.8797 30.6721C20.3748 30.8766 20.6977 30.6398 21.1497 29.7465C21.4941 29.0576 21.5264 28.907 21.5587 27.8522C21.6125 26.4422 21.4726 25.9255 20.6654 24.634C19.955 23.5038 19.8258 23.0518 19.8689 22.04C19.9012 21.4373 19.9873 21.1036 20.2133 20.6839C20.5685 19.9843 20.5793 19.7475 20.2349 19.4138C19.9227 19.0909 19.546 19.0694 19.1908 19.3492Z" fill="black"/>
<path d="M11.0001 23.999C10.6879 24.1819 10.365 24.9676 10.3005 25.6673C10.2466 26.4207 10.3866 26.9481 10.8386 27.6692C11.2369 28.315 11.3122 28.7778 11.0969 29.3052C10.8386 29.9187 10.8709 30.2847 11.2046 30.543C11.549 30.8121 11.7643 30.8228 12.0872 30.5968C12.5392 30.2847 12.7975 29.6066 12.7975 28.724C12.8083 27.9706 12.776 27.8629 12.3455 27.088C11.8611 26.1946 11.775 25.6565 12.0549 25.1721C12.5069 24.3864 11.7643 23.5577 11.0001 23.999Z" fill="black"/>
<path d="M27.9843 24.1392C27.8444 24.2792 27.6506 24.6774 27.543 25.0218C27.2847 25.9259 27.3816 26.604 27.9197 27.5835C28.3933 28.4338 28.4687 28.9073 28.1996 29.3702C27.952 29.8114 27.9951 30.2958 28.318 30.5433C28.6516 30.8017 28.7808 30.8232 29.1575 30.6402C29.7495 30.3819 30.1585 28.7997 29.8679 27.9064C29.7925 27.6803 29.588 27.2498 29.4158 26.9484C29.0068 26.2811 28.9207 25.7537 29.1575 25.3017C29.2544 25.1187 29.3297 24.8173 29.3297 24.6343C29.3297 23.9347 28.5009 23.6226 27.9843 24.1392Z" fill="black"/>
<path d="M36.0245 24.128C35.6478 24.5263 35.4648 25.1075 35.4648 25.9147C35.4648 26.5821 35.5079 26.7543 35.8954 27.4862C36.3797 28.401 36.4335 28.9069 36.1429 29.5204C35.9169 30.0048 36.0891 30.4783 36.5627 30.6721C37.0147 30.8551 37.3807 30.6506 37.7036 30.0155C37.9189 29.5958 37.9511 29.402 37.9189 28.6055C37.8866 27.7553 37.8543 27.6369 37.4883 27.0341C37.0363 26.313 36.9502 25.6672 37.2408 25.1721C37.4668 24.7738 37.4345 24.4402 37.1331 24.1496C36.7995 23.8052 36.3367 23.7944 36.0245 24.128Z" fill="black"/>
<path d="M23.2485 33.7506C21.5157 33.9874 19.6106 34.9453 18.1575 36.3015C17.7916 36.6459 17.4687 36.915 17.4472 36.8935C17.4256 36.8719 17.3072 36.6567 17.1888 36.4199C16.6614 35.3758 15.4344 34.3856 14.1859 33.9982C13.7984 33.8798 13.411 33.7829 13.3249 33.7829C13.0665 33.7829 12.6468 34.2888 12.6468 34.6224C12.6468 34.9453 13.0235 35.3974 13.3033 35.3974C13.637 35.3974 14.8102 36.0539 15.2192 36.4737C15.456 36.7212 15.7896 37.1948 15.9511 37.5285C16.2309 38.0882 16.2524 38.2389 16.2524 39.3798C16.2524 41.4032 15.7035 42.7164 14.1751 44.3416C13.2172 45.3641 12.2055 46.0637 11.0108 46.5158C10.2035 46.8171 9.99902 46.8494 8.87965 46.8602C7.76027 46.8602 7.58806 46.8279 7.03914 46.5803C5.81213 45.9991 5.11252 45.1165 4.83268 43.7819C4.36986 41.5862 5.5 38.9385 7.69569 37.0764C8.01859 36.8074 8.75049 36.3338 9.32094 36.0432C9.89139 35.7526 10.3973 35.4297 10.4296 35.3328C10.6556 34.7408 10.3219 34.1811 9.7407 34.1811C9.25636 34.1811 7.74951 34.9776 6.7593 35.7633C5.16634 37.0334 3.91781 38.9062 3.37965 40.8328C2.8092 42.8563 3.2182 45.2242 4.3591 46.5158C4.53131 46.7203 4.682 46.914 4.682 46.9463C4.682 46.9678 4.22994 47.0109 3.68102 47.0432C2.93836 47.0755 2.56164 47.14 2.18493 47.323C1.38845 47.7105 0.742661 48.3563 0.355186 49.1528C0.0430528 49.7878 0 49.9708 0 50.7888C0 51.5529 0.0430528 51.8005 0.290607 52.3171C0.667319 53.1244 1.30235 53.8025 2.06654 54.1899L2.6908 54.5021L15.8973 54.5344L37 54.5557V54.276C37.2906 53.8993 37.3121 53.6625 37 53.2966V52.9952L16.0157 52.9414C3.15362 52.8876 3.0137 52.8876 2.63699 52.6723C2.43249 52.5432 2.12035 52.2418 1.93738 51.9835C1.65753 51.5852 1.61448 51.4346 1.61448 50.7888C1.61448 50.143 1.65753 49.9923 1.93738 49.5833C2.13112 49.3142 2.46478 49.0236 2.74462 48.8837L3.2182 48.6361H27.5108H51.7926L52.2661 48.8837C52.5245 49.0236 52.8904 49.3465 53.0626 49.594C53.3425 49.9923 53.3855 50.143 53.3855 50.7888C53.3855 51.4346 53.3425 51.5852 53.0626 51.9835C52.8796 52.2418 52.5675 52.5432 52.363 52.6723C51.9971 52.8876 51.8249 52.8876 42.0626 52.9414L32.1389 52.9952L31.9022 53.232C31.6115 53.5226 31.59 54.0392 31.8591 54.3406C32.0528 54.5559 32.1174 54.5559 42.181 54.5344L52.3092 54.5021L52.9119 54.2007C53.6546 53.8455 54.3327 53.1351 54.7094 52.3171C54.9569 51.8005 55 51.5529 55 50.7888C55 50.0246 54.9569 49.777 54.7094 49.2604C54.3327 48.4424 53.6869 47.7751 52.9335 47.3983C52.3845 47.1293 52.1585 47.0755 51.0391 47.0324L49.7691 46.9678L50.501 46.3651C52.3845 44.8367 53.6223 42.6841 53.9883 40.3269C54.3865 37.7976 53.138 35.322 50.953 34.2672C48.4022 33.051 44.8718 33.8475 42.3532 36.2154C41.955 36.5921 41.5998 36.9042 41.5675 36.9042C41.5352 36.9042 41.3738 36.6459 41.1908 36.3338C40.4804 35.0852 38.9198 34.0412 37.3699 33.7829C35.0235 33.3846 32.2466 34.3641 30.2123 36.3015C29.8464 36.6459 29.5235 36.915 29.5127 36.8935C29.4912 36.8719 29.3405 36.6136 29.1791 36.3338C28.1027 34.461 25.7025 33.4169 23.2485 33.7506ZM26.0577 35.6557C27.1233 36.14 27.9198 37.0872 28.2427 38.2389C28.3395 38.6048 28.3288 38.7124 28.1458 39.003C27.7476 39.6488 27.274 41.2848 27.2094 42.2643C27.1556 43.1038 27.1125 43.2545 26.7896 43.685C26.3591 44.2878 25.4658 45.1381 24.7769 45.6117C22.3121 47.2907 19.3845 47.3445 17.8777 45.7301C17.3288 45.1381 16.9843 44.5138 16.8982 43.9326C16.8444 43.6097 16.8982 43.3621 17.1996 42.7164C17.6409 41.7584 17.9207 40.6068 17.9207 39.7242C17.9207 39.1214 17.953 39.0353 18.4266 38.4111C19.2661 37.2809 20.7838 36.1616 22.0753 35.7095C23.044 35.3651 23.4961 35.3005 24.4971 35.3328C25.229 35.3651 25.5626 35.4297 26.0577 35.6557ZM37.4883 35.4404C38.683 35.7633 39.6624 36.6244 40.1145 37.7545C40.4589 38.6263 40.4589 40.2193 40.1145 41.2633C39.0597 44.4492 35.9276 46.914 32.9354 46.914C28.8777 46.914 27.4569 42.5872 30.2339 38.6909C32.0098 36.2154 35.1204 34.8162 37.4883 35.4404ZM50.0166 35.6019C51.2329 36.0647 52.137 37.2594 52.3738 38.7017C52.7182 40.8436 51.3836 43.6958 49.2632 45.2995C45.9051 47.8396 41.9119 47.2907 40.9971 44.1586C40.8464 43.6205 40.8464 43.6097 41.2123 42.8132C41.6751 41.8122 41.9012 40.9297 41.9873 39.8426C42.0626 38.8954 42.1487 38.7232 42.9883 37.8299C44.0753 36.6997 45.41 35.871 46.8092 35.4942C47.7994 35.2252 49.134 35.2682 50.0166 35.6019ZM15.8219 45.6978C15.9403 45.913 16.1986 46.279 16.3924 46.5158C16.5753 46.7418 16.7368 46.9571 16.7368 46.9786C16.7368 47.0001 16.0479 47.0216 15.2084 47.0216L13.6693 47.0109L14.2074 46.5588C14.5088 46.3113 14.9178 45.9346 15.1223 45.7193C15.3268 45.504 15.5205 45.321 15.5528 45.3103C15.5851 45.3103 15.7035 45.4825 15.8219 45.6978ZM27.7691 45.5148C27.8014 45.6224 28.0489 46.0099 28.318 46.3758L28.7916 47.0216H27.2847C26.456 47.0216 25.7779 46.9893 25.7779 46.9355C25.7779 46.8925 25.9393 46.7526 26.1331 46.6234C26.316 46.4942 26.7143 46.1391 27.0157 45.8377C27.3063 45.5471 27.5753 45.2995 27.6184 45.2995C27.6614 45.2995 27.726 45.3964 27.7691 45.5148ZM39.8562 45.6117C39.9315 45.7839 40.1575 46.1498 40.362 46.4189C40.5665 46.6772 40.7387 46.9248 40.7387 46.9571C40.7387 46.9893 40.0499 47.0216 39.2104 47.0216H37.6712L38.0479 46.731C38.2524 46.5696 38.6937 46.1821 39.0166 45.87C39.3395 45.5578 39.6301 45.2995 39.6624 45.2995C39.6947 45.2995 39.7808 45.4394 39.8562 45.6117Z" fill="black"/>
<path d="M25.0566 36.8396C23.6467 37.367 22.4089 38.6585 22.0214 40.0147C21.903 40.4022 21.7308 41.0587 21.6339 41.4677C21.3218 42.6732 20.4177 43.6204 19.2553 43.9648C18.8032 44.094 18.631 44.2016 18.5018 44.4599C18.179 45.0949 18.7171 45.7192 19.4705 45.5793C20.1917 45.4394 21.311 44.7936 21.9245 44.137C22.678 43.3513 23.0332 42.6625 23.313 41.3924C23.5928 40.1869 23.7973 39.7779 24.4001 39.1644C24.8521 38.7124 25.7562 38.1957 26.1222 38.1957C26.3159 38.1957 26.7465 37.7114 26.7465 37.4854C26.7465 37.2055 26.4989 36.818 26.2406 36.6996C25.8962 36.5382 25.8424 36.549 25.0566 36.8396Z" fill="black"/>
<path d="M37.23 36.7753C35.9815 37.2058 34.8083 38.2606 34.2701 39.4338C34.1087 39.789 33.8934 40.4778 33.7858 40.9729C33.4629 42.5228 32.6341 43.5238 31.321 43.9436C30.4061 44.2234 30.1371 44.8262 30.686 45.3751C30.9228 45.6119 31.0196 45.6334 31.4071 45.5796C32.5695 45.3966 34.001 44.3741 34.6791 43.2332C34.8944 42.878 35.1527 42.1784 35.3464 41.3927C35.82 39.5522 36.5089 38.7019 37.8866 38.2606C38.1987 38.1637 38.5216 38.0131 38.5969 37.9162C38.8337 37.6256 38.7584 37.1089 38.4355 36.8291C38.0911 36.5385 37.9511 36.5277 37.23 36.7753Z" fill="black"/>
<path d="M49.2954 36.7753C48.4451 37.0659 47.8209 37.4857 47.1643 38.1853C46.4432 38.971 46.1203 39.6491 45.8081 41.016C45.453 42.5767 44.7426 43.4269 43.4079 43.9221C42.45 44.2665 42.1917 44.8262 42.7406 45.3751C42.9774 45.6119 43.0743 45.6334 43.4618 45.5796C44.678 45.3966 46.2387 44.1911 46.8522 42.9641C47.0244 42.6197 47.2719 41.877 47.4011 41.3174C47.5303 40.7577 47.7563 40.1011 47.8962 39.8536C48.3052 39.1647 49.0479 38.562 49.8443 38.3037C50.2318 38.1745 50.587 37.9808 50.6408 37.8731C50.8453 37.4964 50.77 37.0444 50.4686 36.8076C50.1242 36.5385 49.995 36.5385 49.2954 36.7753Z" fill="black"/>
<path d="M13.185 36.786C12.4101 37.0335 11.8504 37.3995 11.1508 38.0991C10.4619 38.8094 10.0314 39.6705 9.74081 40.919C9.62242 41.4357 9.42868 42.0492 9.32105 42.2644C8.94434 43.0071 7.64199 43.9973 7.03925 44.0081C6.95314 44.0081 6.75941 44.1265 6.63025 44.2664C6.29659 44.6216 6.3504 45.149 6.75941 45.4503C7.02849 45.6441 7.09306 45.6548 7.56665 45.5364C8.45999 45.2889 9.01968 44.9552 9.80539 44.1803C10.6772 43.3085 11.0216 42.6519 11.3015 41.3711C11.549 40.2194 11.689 39.9073 12.2271 39.3261C12.7222 38.7879 13.368 38.3789 13.8846 38.2497C14.595 38.0883 14.9179 37.4102 14.5089 36.9259C14.2291 36.603 13.8631 36.5599 13.185 36.786Z" fill="black"/>
</svg>
