
<svg width="55" height="55" viewBox="0 0 55 55" fill="none" xmlns="http://www.w3.org/2000/svg">
<path d="M4.12388 2.04155C3.61329 2.26519 3.09024 2.89886 3.00307 3.39585C2.9657 3.61949 2.9408 5.19743 2.9657 6.92447C3.00307 9.85671 3.01552 10.0679 3.26459 10.391C3.75027 11.0495 4.13633 11.2359 5.05789 11.2856C5.90473 11.3353 5.92963 11.3477 5.92963 11.6707C5.92963 11.8819 5.1077 13.2362 3.43894 15.7212L0.948242 19.4486V35.7002V51.9517L1.25958 52.2499L1.55846 52.5605H16.8887H32.2189L32.5178 52.2499C32.9288 51.8523 32.9288 51.2808 32.5178 50.8832C32.2189 50.5726 32.2189 50.5726 29.529 50.5726H26.8515V35.3274V20.0699L28.8191 17.1252C29.8901 15.4975 30.7992 14.1681 30.8366 14.1681C30.8739 14.1681 31.8453 15.5969 32.991 17.324C35.2077 20.6662 35.4319 20.8899 36.1044 20.6414C36.5527 20.4674 36.8641 19.9705 36.7644 19.5604C36.7146 19.3865 35.6063 17.647 34.2862 15.6839L31.8951 12.118L31.8329 7.62026C31.7706 3.33372 31.7581 3.11008 31.5091 2.78703C31.3721 2.60066 31.0981 2.32732 30.9113 2.19065C30.5751 1.92973 30.4879 1.92973 17.5363 1.90488C6.88855 1.88003 4.42276 1.90488 4.12388 2.04155ZM25.8552 6.589V9.32245H15.3943H4.93335V6.589V3.85556H15.3943H25.8552V6.589ZM29.8403 7.91845V11.9938L27.3496 15.7212L24.8589 19.4486V35.0044V50.5726H13.8999H2.9408V35.315V20.0699L5.43149 16.3424C7.87237 12.6896 7.92219 12.6026 7.92219 11.9689V11.3104L17.2498 11.2856C26.453 11.2483 26.5899 11.2483 26.9262 10.9874C27.7855 10.3537 27.7855 10.3661 27.8228 6.94932L27.8602 3.85556H28.844H29.8403V7.91845Z" fill="black"/>
<path d="M39.9037 21.4373C35.3333 22.307 31.7716 25.5126 30.3768 30.0352C30.0654 31.0416 30.0405 31.2901 30.0405 33.3029C30.0405 35.1542 30.0779 35.6264 30.3145 36.4712C30.9247 38.6828 32.5437 41.2423 34.1253 42.4972L34.8227 43.0563V48.2499V53.4434L35.134 53.7416C35.3083 53.928 35.5823 54.0522 35.7691 54.0522C35.9933 54.0522 37.0892 53.431 39.007 52.1885C40.6011 51.1697 41.971 50.3248 42.0581 50.3248C42.1453 50.3248 43.5027 51.1573 45.0968 52.1885C46.6908 53.2074 48.0981 54.0522 48.2475 54.0522C48.3845 54.0522 48.6709 53.9156 48.8577 53.7541L49.2064 53.4559L49.2687 48.2499L49.331 43.0563L50.3646 42.0624C52.0707 40.4472 53.1791 38.5586 53.8516 36.1233C54.0135 35.527 54.0633 34.8684 54.0508 33.2408C54.0508 31.315 54.0135 31.0292 53.7146 30.0352C52.407 25.786 49.2313 22.7295 44.9349 21.6112C43.6646 21.2758 41.2113 21.1888 39.9037 21.4373ZM44.5364 23.5619C47.986 24.4441 50.6635 27.0284 51.7843 30.5695C52.0334 31.3771 52.0707 31.7623 52.0707 33.365C52.0707 34.9678 52.0334 35.353 51.7843 36.1606C50.8005 39.2668 48.6336 41.6399 45.7568 42.7457C39.9659 44.9822 33.7268 41.7269 32.195 35.6761C31.9708 34.7939 31.9335 34.3715 31.9833 33.0047C32.0331 31.5883 32.0954 31.228 32.4316 30.2464C33.926 25.8481 37.8738 23.1146 42.4193 23.301C43.1416 23.3259 44.088 23.4501 44.5364 23.5619ZM37.6496 44.6219C40.1278 45.678 43.7394 45.6904 46.3795 44.6467C46.8154 44.4728 47.189 44.3609 47.2263 44.3982C47.2512 44.4231 47.2637 45.9637 47.2512 47.8274L47.2139 51.1946L44.7979 49.6415C43.2163 48.6226 42.2574 48.0884 42.0457 48.0884C41.8215 48.0884 40.9996 48.5481 39.7293 49.3681C38.6334 50.0639 37.5375 50.7721 37.2885 50.9336L36.8152 51.2194V47.7902C36.8152 45.7898 36.865 44.3609 36.9273 44.3609C36.9896 44.3609 37.3134 44.4728 37.6496 44.6219Z" fill="black"/>
<path d="M41.5836 25.3503C41.3844 25.4248 40.9859 26.0958 40.2511 27.5495L39.205 29.6368L36.9385 29.9723C34.3855 30.345 34.1987 30.432 34.1987 31.2148C34.1987 31.6745 34.2859 31.7863 35.855 33.3021L37.5238 34.9049L37.1378 37.2035L36.7641 39.5145L37.0132 39.85C37.474 40.4712 37.8351 40.3966 40.0643 39.2411L42.0693 38.2099L44.0494 39.2411C46.2537 40.3966 46.6148 40.4588 47.0756 39.85L47.3371 39.5021L46.9386 37.2408L46.5526 34.9795L48.2213 33.3021C49.9524 31.5626 50.1018 31.3142 49.7656 30.7053C49.5912 30.3574 49.4044 30.3077 47.0258 29.9599L44.8465 29.6368L43.8004 27.5619C42.6173 25.2385 42.4056 25.0272 41.5836 25.3503ZM43.5886 31.3017C43.6883 31.3887 44.423 31.5626 45.2201 31.6869C46.0171 31.7987 46.6896 31.923 46.7145 31.9602C46.7518 31.9975 46.2786 32.4945 45.6559 33.0909C44.8714 33.8364 44.5351 34.2464 44.5351 34.4452C44.5351 34.6067 44.6472 35.3149 44.7717 36.0356C44.9087 36.7562 44.9959 37.3526 44.971 37.3774C44.9585 37.4023 44.286 37.0917 43.5015 36.7065L42.0569 35.9859L40.6745 36.7065C39.9024 37.1041 39.2548 37.3899 39.2175 37.365C39.1926 37.3277 39.2797 36.6816 39.4167 35.9237C39.5537 35.1658 39.6409 34.4452 39.5911 34.3209C39.5537 34.2091 39.0431 33.6252 38.4703 33.0412C37.885 32.4448 37.4615 31.9354 37.5114 31.8981C37.5736 31.8733 38.2087 31.7739 38.9061 31.6869C39.8028 31.5626 40.2885 31.4508 40.5002 31.2769C40.6745 31.1526 41.098 30.4693 41.4467 29.7859L42.0818 28.5186L42.7294 29.8356C43.0905 30.5562 43.4766 31.2148 43.5886 31.3017Z" fill="black"/>
</svg>