<svg xmlns:xlink="http://www.w3.org/1999/xlink" xmlns="http://www.w3.org/2000/svg" height="276.94472935611054" width="350" style="width: 350px; height: 276.945px; position: absolute; top: 50%; left: 50%; transform: translate(-50%, -50%) scale(1); z-index: 0; cursor: pointer; overflow: visible;"><defs id="SvgjsDefs1001"></defs><g id="SvgjsG1007" featurekey="aMgJeN-0" transform="matrix(2.7755972669788482,0,0,2.7755972669788482,36.219570189670776,-27.943262274571623)" fill="#FFFFFF"><g xmlns="http://www.w3.org/2000/svg" fill="#FFFFFF"><path fill="#FFFFFF" d="M44.941,29.406h2.07l-3.563-8.887c-0.081-0.199-0.218-0.364-0.408-0.471l-16.812-9.85   c-0.46-0.267-1.047-0.111-1.314,0.346c-0.271,0.458-0.116,1.047,0.341,1.314l16.531,9.681L44.941,29.406z"></path><path fill="#FFFFFF" d="M70.799,51.398c0-8.085-2.182-12.286-3.362-15.145c-0.798-1.917-1.561-3.602-2.063-4.67   c-0.439-0.938-1.132-1.218-2.144-1.218c-1.648-0.003-3.296-0.003-4.944,0c-1.146,0.003-2.295,0-3.44,0h-0.2h-8.814   c-0.872,0-1.378,0.499-1.736,1.267c-0.502,1.07-1.254,2.734-2.038,4.622c-1.184,2.858-3.363,7.06-3.363,15.145   c0,5.989,4.101,14.156,14.156,14.715c1.086,5.247,0.671,16.841,0.485,17.765c-0.19,0.921-2.696,3.029-4.713,3.7   c-2.021,0.672-5.577,1.149-6.564,1.178c-0.987,0.024-0.878,1.177,0,1.177c0.812,0,11.039,0,12.588,0c0.126,0,0.2,0,0.2,0   c1.55,0,11.776,0,12.592,0c0.875,0,0.983-1.152,0-1.177c-0.991-0.028-4.548-0.506-6.565-1.178c-2.023-0.671-4.525-2.779-4.712-3.7   c-0.189-0.924-0.604-12.518,0.481-17.765C66.694,65.555,70.799,57.388,70.799,51.398z M52.736,43.679l-4.565-11.391h-2.07   l4.572,11.398c-0.594,0.003-1.191,0.002-1.785,0.007c-2.358,0.019-4.856,0.235-7.201,0.039c-1.803-0.149-0.685-2.179-0.313-3.238   c0.355-1.01,0.77-1.996,1.191-2.98c0.133-0.313,0.26-0.608,0.379-0.891c0.464-1.123,0.945-2.237,1.451-3.342   c0.373-0.819,0.636-1.657,1.613-1.894c0.738-0.178,1.634-0.069,2.386-0.062c1.687,0.012,3.378,0.003,5.064,0.003   c0.397,0,0.791-0.003,1.185-0.003h0.2c2.4,0,4.801-0.002,7.197,0.003c1.304,0,2.126-0.039,2.72,1.214   c0.633,1.341,1.216,2.709,1.785,4.08c0.116,0.283,0.246,0.578,0.376,0.891c0.426,0.993,0.84,1.989,1.209,3.004   c0.239,0.652,0.97,2.107,0.573,2.806c-0.015,0.024-0.028,0.049-0.046,0.072c-0.323,0.429-1.072,0.306-1.55,0.335   c-1.216,0.076-2.379-0.005-3.592-0.02C59.926,43.668,56.335,43.667,52.736,43.679z"></path><path fill="#FFFFFF" d="M67.446,41.52c-0.207-0.646-0.425-1.244-0.646-1.801c-0.833,0.25-1.711,0.386-2.625,0.386   c-4.6,0-8.392-3.396-9.035-7.817c-0.098,0-0.196,0-0.295,0h-0.2h-1.438c0.653,5.477,5.31,9.729,10.968,9.729   C65.313,42.017,66.41,41.843,67.446,41.52z"></path><path fill="#FFFFFF" d="M64.175,19.916c-5.573,0-10.181,4.126-10.937,9.49h1.406h0.2c0.112,0,0.222,0,0.33,0   c0.742-4.305,4.484-7.582,9-7.583c5.047,0.001,9.141,4.092,9.141,9.142c0,3.103-1.55,5.84-3.915,7.492   c0.225,0.564,0.453,1.179,0.675,1.847c3.096-1.959,5.145-5.408,5.145-9.339C75.22,24.864,70.275,19.916,64.175,19.916z"></path></g></g><g id="SvgjsG1008" featurekey="8L6ael-0" transform="matrix(2.328613759303755,0,0,2.328613759303755,-1.8163181104499708,230.37245528040498)" fill="#FFFFFF"><path d="M9 7.859999999999999 q-0.26 -0.04 -0.43 -0.24 t-0.17 -0.46 l0 -1.46 q0 -0.34 0.24 -0.54 t0.56 -0.16 q1.72 0.28 3.06 1.22 q1.74 1.26 2.46 3.34 q0.12 0.34 -0.08 0.64 t-0.58 0.3 l-1.6 0 q-0.22 0 -0.4 -0.11 t-0.26 -0.31 q-0.44 -1.04 -1.34 -1.66 q-0.7 -0.44 -1.46 -0.56 z M14.06 14.5 q0.38 0 0.58 0.3 t0.08 0.64 q-0.72 2.08 -2.46 3.34 q-1.34 0.94 -3.06 1.22 l-0.1 0 q-0.28 0 -0.46 -0.18 q-0.24 -0.18 -0.24 -0.52 l0 -1.46 q0 -0.26 0.16 -0.46 t0.42 -0.24 q0.84 -0.12 1.48 -0.56 q0.9 -0.62 1.34 -1.66 q0.08 -0.2 0.26 -0.31 t0.4 -0.11 l1.6 0 z M6.9 5.24 q0.26 0.2 0.26 0.54 l0 1.56 q0 0.22 -0.15 0.41 t-0.37 0.27 q-0.28 0.06 -0.44 0.14 q-0.8 0.36 -1.36 0.98 q-1.14 1.28 -1.14 3.35 t1.14 3.37 q0.7 0.8 1.8 1.12 q0.22 0.06 0.37 0.25 t0.15 0.41 l0 1.58 q0 0.34 -0.26 0.54 q-0.18 0.16 -0.46 0.16 l-0.14 0 q-2.14 -0.46 -3.62 -2.08 q-1.9 -2.14 -1.9 -5.34 t1.9 -5.34 q1.48 -1.64 3.62 -2.06 q0.32 -0.08 0.6 0.14 z M24.588 5.16 q0.24 0.2 0.24 0.54 l0 1.5 q0 0.26 -0.15 0.45 t-0.41 0.25 q-1.28 0.26 -2.18 1.22 q-1.22 1.28 -1.22 3.33 t1.22 3.35 q0.9 0.94 2.18 1.2 q0.26 0.06 0.41 0.25 t0.15 0.45 l0 1.5 q0 0.32 -0.24 0.54 q-0.22 0.16 -0.46 0.16 l-0.12 0 q-2.32 -0.38 -3.98 -2.1 q-2.08 -2.14 -2.08 -5.33 t2.08 -5.37 q1.62 -1.68 3.98 -2.08 q0.32 -0.06 0.58 0.14 z M30.868 7.1 q2.08 2.18 2.08 5.37 t-2.08 5.33 q-1.66 1.72 -3.98 2.1 l-0.12 0 q-0.24 0 -0.46 -0.16 q-0.24 -0.22 -0.24 -0.54 l0 -1.5 q0 -0.26 0.15 -0.45 t0.41 -0.25 q1.28 -0.26 2.18 -1.2 q1.22 -1.3 1.22 -3.35 t-1.22 -3.33 q-0.9 -0.96 -2.18 -1.22 q-0.26 -0.06 -0.41 -0.25 t-0.15 -0.45 l0 -1.5 q0 -0.34 0.25 -0.54 t0.57 -0.14 q2.36 0.4 3.98 2.08 z M44.495999999999995 7.859999999999999 q-0.26 -0.04 -0.43 -0.24 t-0.17 -0.46 l0 -1.46 q0 -0.34 0.24 -0.54 t0.56 -0.16 q1.72 0.28 3.06 1.22 q1.74 1.26 2.46 3.34 q0.12 0.34 -0.08 0.64 t-0.58 0.3 l-1.6 0 q-0.22 0 -0.4 -0.11 t-0.26 -0.31 q-0.44 -1.04 -1.34 -1.66 q-0.7 -0.44 -1.46 -0.56 z M49.556 14.5 q0.38 0 0.58 0.3 t0.08 0.64 q-0.72 2.08 -2.46 3.34 q-1.34 0.94 -3.06 1.22 l-0.1 0 q-0.28 0 -0.46 -0.18 q-0.24 -0.18 -0.24 -0.52 l0 -1.46 q0 -0.26 0.16 -0.46 t0.42 -0.24 q0.84 -0.12 1.48 -0.56 q0.9 -0.62 1.34 -1.66 q0.08 -0.2 0.26 -0.31 t0.4 -0.11 l1.6 0 z M42.395999999999994 5.24 q0.26 0.2 0.26 0.54 l0 1.56 q0 0.22 -0.15 0.41 t-0.37 0.27 q-0.28 0.06 -0.44 0.14 q-0.8 0.36 -1.36 0.98 q-1.14 1.28 -1.14 3.35 t1.14 3.37 q0.7 0.8 1.8 1.12 q0.22 0.06 0.37 0.25 t0.15 0.41 l0 1.58 q0 0.34 -0.26 0.54 q-0.18 0.16 -0.46 0.16 l-0.14 0 q-2.14 -0.46 -3.62 -2.08 q-1.9 -2.14 -1.9 -5.34 t1.9 -5.34 q1.48 -1.64 3.62 -2.06 q0.32 -0.08 0.6 0.14 z M60.083999999999996 5.16 q0.24 0.2 0.24 0.54 l0 1.5 q0 0.26 -0.15 0.45 t-0.41 0.25 q-1.28 0.26 -2.18 1.22 q-1.22 1.28 -1.22 3.33 t1.22 3.35 q0.9 0.94 2.18 1.2 q0.26 0.06 0.41 0.25 t0.15 0.45 l0 1.5 q0 0.32 -0.24 0.54 q-0.22 0.16 -0.46 0.16 l-0.12 0 q-2.32 -0.38 -3.98 -2.1 q-2.08 -2.14 -2.08 -5.33 t2.08 -5.37 q1.62 -1.68 3.98 -2.08 q0.32 -0.06 0.58 0.14 z M66.36399999999999 7.1 q2.08 2.18 2.08 5.37 t-2.08 5.33 q-1.66 1.72 -3.98 2.1 l-0.12 0 q-0.24 0 -0.46 -0.16 q-0.24 -0.22 -0.24 -0.54 l0 -1.5 q0 -0.26 0.15 -0.45 t0.41 -0.25 q1.28 -0.26 2.18 -1.2 q1.22 -1.3 1.22 -3.35 t-1.22 -3.33 q-0.9 -0.96 -2.18 -1.22 q-0.26 -0.06 -0.41 -0.25 t-0.15 -0.45 l0 -1.5 q0 -0.34 0.25 -0.54 t0.57 -0.14 q2.36 0.4 3.98 2.08 z M73.31199999999998 10.12 q-0.28 0 -0.49 -0.21 t-0.21 -0.49 l0 -3.72 q0 -0.28 0.21 -0.49 t0.49 -0.21 l1.52 0 q0.3 0 0.5 0.21 t0.2 0.49 l0 3.72 q0 0.28 -0.2 0.49 t-0.5 0.21 l-1.52 0 z M84.172 5 q0.28 0 0.49 0.21 t0.21 0.49 l0 13.44 q0 0.28 -0.21 0.49 t-0.49 0.21 l-1.52 0 q-0.3 0 -0.5 -0.21 t-0.2 -0.49 l0 -5.28 l-6.42 0 l0 5.28 q0 0.28 -0.2 0.49 t-0.5 0.21 l-1.52 0 q-0.28 0 -0.49 -0.21 t-0.21 -0.49 l0 -7.48 q0 -0.28 0.21 -0.49 t0.49 -0.21 l8.64 0 l0 -5.26 q0 -0.28 0.2 -0.49 t0.5 -0.21 l1.52 0 z M103.03999999999999 18.86 q0.14 0.32 -0.07 0.65 t-0.57 0.33 l-13.32 0 q-0.18 0 -0.34 -0.09 t-0.24 -0.23 q-0.22 -0.32 -0.06 -0.66 l0.62 -1.46 q0.08 -0.2 0.26 -0.32 t0.38 -0.12 l9.32 0 l-3.28 -7.84 l-2.68 6.4 q-0.08 0.2 -0.25 0.31 t-0.39 0.11 l-1.68 0 q-0.38 0 -0.6 -0.32 q-0.08 -0.14 -0.1 -0.32 t0.04 -0.34 l4.06 -9.52 q0.08 -0.2 0.25 -0.32 t0.39 -0.12 l1.92 0 q0.22 0 0.39 0.12 t0.25 0.32 z M119.06799999999998 5.32 q0.22 0.3 0.08 0.66 l-5.48 13.54 q-0.08 0.2 -0.26 0.32 t-0.4 0.12 l-1.76 0 q-0.22 0 -0.4 -0.12 t-0.26 -0.32 l-5.48 -13.54 q-0.16 -0.34 0.06 -0.66 t0.58 -0.32 l6.68 0 q0.28 0 0.49 0.21 t0.21 0.51 l0 1.46 q0 0.3 -0.21 0.51 t-0.49 0.21 l-3.36 0 l3.06 7.7 l4.02 -10.16 q0.08 -0.2 0.26 -0.32 t0.4 -0.12 l1.68 0 q0.18 0 0.34 0.09 t0.24 0.23 z M133.236 16.96 q0.3 0 0.5 0.21 t0.2 0.51 l0 1.46 q0 0.28 -0.2 0.49 t-0.5 0.21 l-9.88 0 q-0.28 0 -0.49 -0.21 t-0.21 -0.49 l0 -1.46 q0 -0.3 0.21 -0.51 t0.49 -0.21 l9.88 0 z M123.35599999999998 13.86 q-0.28 0 -0.49 -0.21 t-0.21 -0.49 l0 -1.5 q0 -0.28 0.21 -0.49 t0.49 -0.21 l8.98 0 q0.3 0 0.51 0.21 t0.21 0.49 l0 1.5 q0 0.28 -0.21 0.49 t-0.51 0.21 l-8.98 0 z M133.236 5 q0.3 0 0.5 0.21 t0.2 0.49 l0 1.46 q0 0.3 -0.2 0.51 t-0.5 0.21 l-9.88 0 q-0.28 0 -0.49 -0.21 t-0.21 -0.51 l0 -1.46 q0 -0.28 0.21 -0.49 t0.49 -0.21 l9.88 0 z M150.384 5 q0.28 0 0.49 0.21 t0.21 0.49 l0 13.4 q0 0.28 -0.21 0.49 t-0.49 0.21 l-1.76 0 q-0.36 0 -0.58 -0.28 l-9.78 -13.4 q-0.12 -0.16 -0.14 -0.36 t0.07 -0.38 t0.26 -0.28 t0.37 -0.1 l1.76 0 q0.16 0 0.32 0.07 t0.24 0.21 l7.02 9.54 l0 -9.12 q0 -0.28 0.2 -0.49 t0.5 -0.21 l1.52 0 z M140.344 14.7 q0.28 0 0.49 0.2 t0.21 0.5 l0 3.7 q0 0.28 -0.21 0.49 t-0.49 0.21 l-1.52 0 q-0.28 0 -0.49 -0.21 t-0.21 -0.49 l0 -3.7 q0 -0.3 0.21 -0.5 t0.49 -0.2 l1.52 0 z" fill="#FFFFFF"></path></g></svg>